<svg xmlns="http://www.w3.org/2000/svg" xmlns:xlink="http://www.w3.org/1999/xlink" viewBox="0 0 1019.35 243.07"><defs><style>.cls-1{fill:url(#linear-gradient);}.cls-2{fill:url(#linear-gradient-2);}.cls-3{fill:#ef990f;}</style><linearGradient id="linear-gradient" x1="24.1" y1="87.26" x2="1408.53" y2="87.26" gradientUnits="userSpaceOnUse"><stop offset="0" stop-color="#1e4e89"/><stop offset="0.45" stop-color="#1e4c87"/><stop offset="0.67" stop-color="#204480"/><stop offset="0.84" stop-color="#223774"/><stop offset="0.98" stop-color="#262563"/><stop offset="1" stop-color="#262261"/></linearGradient><linearGradient id="linear-gradient-2" x1="24.1" y1="86.99" x2="1408.53" y2="86.99" xlink:href="#linear-gradient"/></defs><title>Asset 17</title><g id="Layer_2" data-name="Layer 2"><g id="Layer_1-2" data-name="Layer 1"><path class="cls-1" d="M37.14,2.67H152.8l-4.39,20.24H92.09L81.37,71.67h47L124,92.19H77L59.39,171.85H.05Z"/><path class="cls-2" d="M246.49,0q23.63,0,38.33,5.86A50.08,50.08,0,0,1,308,24a67.38,67.38,0,0,1,8.52,18.65,85.84,85.84,0,0,1,3,24,127.48,127.48,0,0,1-2.2,23.45,140,140,0,0,1-6.18,22.51,123.23,123.23,0,0,1-9.62,20.25,93.55,93.55,0,0,1-12.5,16.65,70.71,70.71,0,0,1-29.81,19.05Q242.37,174,217.64,174q-23.89,0-38.46-4.79T156.1,153.73a54.54,54.54,0,0,1-9.48-18.91q-3.44-11.46-3.43-28.78,0-29.58,10.85-52.89T185,16.25A88,88,0,0,1,211.88,4Q226.72,0,246.49,0Zm-31,155.33q6.31,0,12-5.46a57.47,57.47,0,0,0,10.44-14.65,149.35,149.35,0,0,0,8.79-20.92,226.53,226.53,0,0,0,6.73-24.24q2.75-12.53,4.26-24.92a188.86,188.86,0,0,0,1.51-22.51q0-13.86-2.88-19.05t-8.38-5.2q-6.33,0-12.09,5.33A58.84,58.84,0,0,0,224.93,38a119.28,119.28,0,0,0-9.07,20.51A246.69,246.69,0,0,0,209,82.33a234.51,234.51,0,0,0-4.4,24.24,179.38,179.38,0,0,0-1.51,22.12q0,15.18,3.44,20.91C208.81,153.43,211.78,155.33,215.45,155.33Z"/><path class="cls-1" d="M492.94,42.9a50.56,50.56,0,0,1-9.07,29q-9.06,13.33-29.95,20.26l31.87,79.66H424.53l-24.18-73.8h-3l-16.21,73.8H321.77L358.86,2.67h72.26A185,185,0,0,1,455,4.13,58.31,58.31,0,0,1,474.67,10,34.34,34.34,0,0,1,488,22.24Q492.94,30.12,492.94,42.9ZM413.81,81A17.46,17.46,0,0,0,426,76.33,36.44,36.44,0,0,0,434.28,65a56.56,56.56,0,0,0,4.53-14.26,75,75,0,0,0,1.38-13.18,26.19,26.19,0,0,0-2.48-11.86c-1.64-3.29-5.22-4.93-10.71-4.93H414.64L400.9,81Z"/><path class="cls-1" d="M642.12,171.85H577.83L547.34,49.55l-26.93,122.3H495.68L532.77,2.67h65.67l28.85,123.88L654.48,2.67h25.28Z"/><path class="cls-1" d="M824.83,171.85H760.54l-3.85-42.36H705.86l-19.5,42.36H659.71l81-169.18h65.11ZM714.93,110h39.84l-6.32-72.47Z"/><path class="cls-1" d="M944.34,56l42-53.28h33L954.23,78.6l40.94,93.25H927.31l-23.35-53-42.31,53h-33l64.85-77L853.13,2.67H921Z"/><path class="cls-3" d="M0,234.25V203.71H13.87a19.42,19.42,0,0,1,8.77,1.9,14.56,14.56,0,0,1,5.94,5.3,16.31,16.31,0,0,1,0,16.12,14.49,14.49,0,0,1-5.94,5.33,19.42,19.42,0,0,1-8.77,1.89Zm7.07-5.8h6.45a11.36,11.36,0,0,0,5.31-1.16A8.39,8.39,0,0,0,22.32,224a10.82,10.82,0,0,0,0-10.06,8.47,8.47,0,0,0-3.49-3.27,11.49,11.49,0,0,0-5.31-1.15H7.07Z"/><path class="cls-3" d="M39,207.51a4.33,4.33,0,0,1-3.06-1.09,3.71,3.71,0,0,1,0-5.41A4.33,4.33,0,0,1,39,199.92a4.48,4.48,0,0,1,3,1,3.34,3.34,0,0,1,1.18,2.64A3.75,3.75,0,0,1,42,206.4,4.24,4.24,0,0,1,39,207.51Zm-3.4,26.74V210.78h6.8v23.47Z"/><path class="cls-3" d="M58.68,233.12a12.24,12.24,0,0,1-5.91-1.42,11.15,11.15,0,0,1-4.24-4,11.25,11.25,0,0,1,4.24-15.9,12.46,12.46,0,0,1,5.91-1.4,11,11,0,0,1,5.23,1.2,8.33,8.33,0,0,1,3.54,3.71,17,17,0,0,1,0,12.83,8.48,8.48,0,0,1-3.54,3.73A10.89,10.89,0,0,1,58.68,233.12Zm1,9.95a25,25,0,0,1-6.39-.81,13.92,13.92,0,0,1-5.12-2.42l2.7-4.89a11,11,0,0,0,3.78,1.94,15,15,0,0,0,4.51.72q3.63,0,5.26-1.61a6.47,6.47,0,0,0,1.63-4.8v-3.53l.44-5.89-.09-5.94v-5.06H72.9v19.55q0,6.54-3.4,9.64T59.72,243.07ZM60,227.53a6.83,6.83,0,0,0,3.18-.72,5.28,5.28,0,0,0,2.19-2,6.26,6.26,0,0,0,0-6,5.44,5.44,0,0,0-2.19-2,7.38,7.38,0,0,0-6.36,0,5.4,5.4,0,0,0-3,5,5.63,5.63,0,0,0,.81,3,5.39,5.39,0,0,0,2.21,2A6.83,6.83,0,0,0,60,227.53Z"/><path class="cls-3" d="M82.63,207.51a4.29,4.29,0,0,1-3-1.09,3.69,3.69,0,0,1,0-5.41,4.29,4.29,0,0,1,3-1.09,4.48,4.48,0,0,1,3.05,1,3.34,3.34,0,0,1,1.18,2.64,3.78,3.78,0,0,1-1.15,2.82A4.28,4.28,0,0,1,82.63,207.51Zm-3.4,26.74V210.78H86v23.47Z"/><path class="cls-3" d="M89.57,216.54v-5.23h16.27v5.23ZM102,234.6a9.21,9.21,0,0,1-6.46-2.11c-1.54-1.41-2.31-3.52-2.31-6.31V205.59H100V226.1a3.14,3.14,0,0,0,.79,2.29,2.86,2.86,0,0,0,2.14.8,4.36,4.36,0,0,0,2.74-.87l1.84,4.8a7.69,7.69,0,0,1-2.51,1.11A12.21,12.21,0,0,1,102,234.6Z"/><path class="cls-3" d="M118.58,234.6a10.75,10.75,0,0,1-4.71-.94,7,7,0,0,1-3-2.55,6.47,6.47,0,0,1-1-3.62,6.56,6.56,0,0,1,1-3.66,6.77,6.77,0,0,1,3.25-2.47,16,16,0,0,1,5.81-.89h6.24v4h-5.5a5.17,5.17,0,0,0-3.3.78,2.54,2.54,0,0,0-.89,2,2.45,2.45,0,0,0,1,2.07,4.65,4.65,0,0,0,2.82.76,5.82,5.82,0,0,0,3-.81,4.63,4.63,0,0,0,2-2.37l1,3.14a6,6,0,0,1-2.7,3.44A9.69,9.69,0,0,1,118.58,234.6Zm7.15-.35v-4.58l-.43-1v-8.2a4.43,4.43,0,0,0-1.33-3.41,5.9,5.9,0,0,0-4.08-1.22,12,12,0,0,0-3.69.59,9.74,9.74,0,0,0-3.08,1.59l-2.44-4.75a14.85,14.85,0,0,1,4.63-2.1,20.82,20.82,0,0,1,5.49-.74c3.58,0,6.36.85,8.34,2.53s3,4.32,3,7.9v13.39Z"/><path class="cls-3" d="M138.25,234.25V201.88h6.81v32.37Z"/><path class="cls-3" d="M170.54,234.25V209.47h-9.78v-5.76h26.62v5.76H177.6v24.78Z"/><path class="cls-3" d="M190.17,234.25V210.78h6.5v6.63l-.92-1.92a7.59,7.59,0,0,1,3.36-3.77,11.4,11.4,0,0,1,5.63-1.29v6.29c-.29,0-.55-.06-.78-.07l-.75,0a6.39,6.39,0,0,0-4.51,1.59q-1.72,1.59-1.72,4.95v11.08Z"/><path class="cls-3" d="M214.51,234.6a10.78,10.78,0,0,1-4.71-.94,7.09,7.09,0,0,1-3-2.55,6.47,6.47,0,0,1-1-3.62,6.56,6.56,0,0,1,1-3.66,6.72,6.72,0,0,1,3.25-2.47,15.92,15.92,0,0,1,5.8-.89h6.24v4h-5.5a5.14,5.14,0,0,0-3.29.78,2.5,2.5,0,0,0-.89,2,2.45,2.45,0,0,0,1,2.07,4.61,4.61,0,0,0,2.82.76,5.82,5.82,0,0,0,3.05-.81,4.57,4.57,0,0,0,2-2.37l1.05,3.14a6.06,6.06,0,0,1-2.7,3.44A9.71,9.71,0,0,1,214.51,234.6Zm7.16-.35v-4.58l-.44-1v-8.2a4.39,4.39,0,0,0-1.33-3.41,5.89,5.89,0,0,0-4.08-1.22,11.86,11.86,0,0,0-3.68.59,9.63,9.63,0,0,0-3.08,1.59l-2.44-4.75a14.9,14.9,0,0,1,4.62-2.1,20.89,20.89,0,0,1,5.5-.74c3.58,0,6.35.85,8.33,2.53s3,4.32,3,7.9v13.39Z"/><path class="cls-3" d="M248.46,210.43a10.81,10.81,0,0,1,5,1.12,8,8,0,0,1,3.47,3.4,12.07,12.07,0,0,1,1.26,5.87v13.43h-6.8V221.86a6,6,0,0,0-1.25-4.18,4.49,4.49,0,0,0-3.51-1.36,6.17,6.17,0,0,0-2.9.68,4.68,4.68,0,0,0-2,2.07,7.79,7.79,0,0,0-.71,3.58v11.6h-6.81V210.78h6.5v6.5l-1.22-2a8.66,8.66,0,0,1,3.62-3.62A11.1,11.1,0,0,1,248.46,210.43Z"/><path class="cls-3" d="M272.23,234.6a22.94,22.94,0,0,1-5.78-.72,14.12,14.12,0,0,1-4.38-1.81l2.27-4.88a15.18,15.18,0,0,0,3.81,1.63,15.77,15.77,0,0,0,4.34.63,7.11,7.11,0,0,0,3.34-.56,1.73,1.73,0,0,0,1-1.57,1.34,1.34,0,0,0-.76-1.25,7.06,7.06,0,0,0-2-.63l-2.77-.44c-1-.14-2-.34-3-.58a10.13,10.13,0,0,1-2.79-1.12,5.64,5.64,0,0,1-2-2,6.92,6.92,0,0,1,.52-7.2,8.53,8.53,0,0,1,3.73-2.69,15.78,15.78,0,0,1,5.85-1,23.51,23.51,0,0,1,4.88.53,13.33,13.33,0,0,1,4.15,1.52l-2.27,4.85a11.54,11.54,0,0,0-3.43-1.38,15.58,15.58,0,0,0-3.33-.37,6.81,6.81,0,0,0-3.32.61,1.8,1.8,0,0,0-1.05,1.57,1.42,1.42,0,0,0,.77,1.31,7.12,7.12,0,0,0,2,.7c.84.17,1.76.33,2.77.46a23.8,23.8,0,0,1,3,.59,10.84,10.84,0,0,1,2.77,1.11,5.85,5.85,0,0,1,2,2A6.68,6.68,0,0,1,282,231a8.59,8.59,0,0,1-3.77,2.64A16.55,16.55,0,0,1,272.23,234.6Z"/><path class="cls-3" d="M290.9,207.51a4.29,4.29,0,0,1-3-1.09,3.69,3.69,0,0,1,0-5.41,4.29,4.29,0,0,1,3-1.09,4.52,4.52,0,0,1,3.06,1,3.38,3.38,0,0,1,1.18,2.64A3.75,3.75,0,0,1,294,206.4,4.26,4.26,0,0,1,290.9,207.51Zm-3.4,26.74V210.78h6.81v23.47Z"/><path class="cls-3" d="M297.84,216.54v-5.23h16.27v5.23Zm12.39,18.06a9.22,9.22,0,0,1-6.46-2.11c-1.54-1.41-2.31-3.52-2.31-6.31V205.59h6.81V226.1a3.18,3.18,0,0,0,.78,2.29,2.89,2.89,0,0,0,2.14.8,4.39,4.39,0,0,0,2.75-.87l1.83,4.8a7.59,7.59,0,0,1-2.51,1.11A12.09,12.09,0,0,1,310.23,234.6Z"/><path class="cls-3" d="M323,207.51a4.29,4.29,0,0,1-3.05-1.09,3.69,3.69,0,0,1,0-5.41,4.29,4.29,0,0,1,3.05-1.09,4.52,4.52,0,0,1,3.06,1,3.38,3.38,0,0,1,1.18,2.64,3.75,3.75,0,0,1-1.16,2.82A4.26,4.26,0,0,1,323,207.51Zm-3.4,26.74V210.78h6.81v23.47Z"/><path class="cls-3" d="M343.91,234.6a13.7,13.7,0,0,1-6.65-1.57,11.93,11.93,0,0,1-4.58-4.3,11.56,11.56,0,0,1-1.68-6.21A11.59,11.59,0,0,1,337.26,212a15,15,0,0,1,13.28,0,11.55,11.55,0,0,1,4.58,4.26A11.94,11.94,0,0,1,350.54,233,13.76,13.76,0,0,1,343.91,234.6Zm0-5.58a5.9,5.9,0,0,0,3-.79A5.51,5.51,0,0,0,349.1,226a8.06,8.06,0,0,0,0-7A5.61,5.61,0,0,0,347,216.8a6.35,6.35,0,0,0-6.1,0A5.72,5.72,0,0,0,338.7,219a7.88,7.88,0,0,0,0,7,5.62,5.62,0,0,0,2.16,2.24A5.9,5.9,0,0,0,343.91,229Z"/><path class="cls-3" d="M375.58,210.43a10.82,10.82,0,0,1,5,1.12,8.07,8.07,0,0,1,3.47,3.4,12.07,12.07,0,0,1,1.26,5.87v13.43h-6.8V221.86a6,6,0,0,0-1.25-4.18,4.51,4.51,0,0,0-3.51-1.36,6.17,6.17,0,0,0-2.9.68,4.68,4.68,0,0,0-2,2.07,7.78,7.78,0,0,0-.72,3.58v11.6h-6.8V210.78h6.5v6.5l-1.22-2a8.66,8.66,0,0,1,3.62-3.62A11.08,11.08,0,0,1,375.58,210.43Z"/><path class="cls-3" d="M401,216.54v-5.23h16.27v5.23Zm3.62,17.71v-24a8.6,8.6,0,0,1,2.36-6.35,9,9,0,0,1,6.71-2.38,13.33,13.33,0,0,1,2.86.31,6.62,6.62,0,0,1,2.34,1l-1.79,4.93a4.52,4.52,0,0,0-1.27-.61,4.78,4.78,0,0,0-1.48-.22,3,3,0,0,0-2.29.85,3.58,3.58,0,0,0-.81,2.55v2.18l.18,2.93v18.84Z"/><path class="cls-3" d="M431.56,234.6A13.74,13.74,0,0,1,424.9,233a12,12,0,0,1-4.58-4.3,11.56,11.56,0,0,1-1.68-6.21A11.59,11.59,0,0,1,424.9,212a15,15,0,0,1,13.29,0,11.62,11.62,0,0,1,4.58,4.26A11.94,11.94,0,0,1,438.19,233,13.76,13.76,0,0,1,431.56,234.6Zm0-5.58a5.9,5.9,0,0,0,3.05-.79,5.64,5.64,0,0,0,2.14-2.24,8.15,8.15,0,0,0,0-7,5.74,5.74,0,0,0-2.14-2.23,6.37,6.37,0,0,0-6.11,0,5.86,5.86,0,0,0-2.16,2.23,8,8,0,0,0,0,7,5.75,5.75,0,0,0,2.16,2.24A5.91,5.91,0,0,0,431.56,229Z"/><path class="cls-3" d="M449,234.25V210.78h6.5v6.63l-.91-1.92a7.59,7.59,0,0,1,3.36-3.77,11.4,11.4,0,0,1,5.63-1.29v6.29c-.29,0-.56-.06-.79-.07l-.74,0a6.41,6.41,0,0,0-4.52,1.59q-1.73,1.59-1.72,4.95v11.08Z"/><path class="cls-3" d="M480.59,234.25V203.71h13.88a19.45,19.45,0,0,1,8.77,1.9,14.53,14.53,0,0,1,5.93,5.3,16.25,16.25,0,0,1,0,16.12,14.46,14.46,0,0,1-5.93,5.33,19.45,19.45,0,0,1-8.77,1.89Zm7.07-5.8h6.46a11.35,11.35,0,0,0,5.3-1.16,8.33,8.33,0,0,0,3.49-3.29,10.82,10.82,0,0,0,0-10.06,8.41,8.41,0,0,0-3.49-3.27,11.47,11.47,0,0,0-5.3-1.15h-6.46Z"/><path class="cls-3" d="M519.55,207.51a4.29,4.29,0,0,1-3-1.09,3.69,3.69,0,0,1,0-5.41,4.29,4.29,0,0,1,3-1.09,4.52,4.52,0,0,1,3.06,1,3.38,3.38,0,0,1,1.18,2.64,3.75,3.75,0,0,1-1.16,2.82A4.26,4.26,0,0,1,519.55,207.51Zm-3.4,26.74V210.78H523v23.47Z"/><path class="cls-3" d="M539.27,233.12a12.24,12.24,0,0,1-5.91-1.42,11.6,11.6,0,0,1-4.23-15.92,10.93,10.93,0,0,1,4.23-3.95,12.46,12.46,0,0,1,5.91-1.4,11.07,11.07,0,0,1,5.24,1.2,8.25,8.25,0,0,1,3.53,3.71,16.84,16.84,0,0,1,0,12.83,8.41,8.41,0,0,1-3.53,3.73A11,11,0,0,1,539.27,233.12Zm1.05,9.95a25,25,0,0,1-6.39-.81,14,14,0,0,1-5.13-2.42l2.71-4.89a10.88,10.88,0,0,0,3.77,1.94,15,15,0,0,0,4.51.72q3.63,0,5.26-1.61a6.48,6.48,0,0,0,1.64-4.8v-3.53l.43-5.89-.08-5.94v-5.06h6.45v19.55q0,6.54-3.4,9.64T540.32,243.07Zm.3-15.54a6.85,6.85,0,0,0,3.19-.72,5.25,5.25,0,0,0,2.18-2,6.19,6.19,0,0,0,0-6,5.41,5.41,0,0,0-2.18-2,7.4,7.4,0,0,0-6.37,0,5.53,5.53,0,0,0-2.2,2,6.05,6.05,0,0,0,0,6,5.37,5.37,0,0,0,2.2,2A6.83,6.83,0,0,0,540.62,227.53Z"/><path class="cls-3" d="M563.22,207.51a4.29,4.29,0,0,1-3.05-1.09,3.69,3.69,0,0,1,0-5.41,4.29,4.29,0,0,1,3.05-1.09,4.52,4.52,0,0,1,3.06,1,3.38,3.38,0,0,1,1.18,2.64,3.75,3.75,0,0,1-1.16,2.82A4.26,4.26,0,0,1,563.22,207.51Zm-3.4,26.74V210.78h6.81v23.47Z"/><path class="cls-3" d="M570.16,216.54v-5.23h16.27v5.23Zm12.39,18.06a9.22,9.22,0,0,1-6.46-2.11c-1.54-1.41-2.31-3.52-2.31-6.31V205.59h6.81V226.1a3.18,3.18,0,0,0,.78,2.29,2.89,2.89,0,0,0,2.14.8,4.41,4.41,0,0,0,2.75-.87l1.83,4.8a7.59,7.59,0,0,1-2.51,1.11A12.09,12.09,0,0,1,582.55,234.6Z"/><path class="cls-3" d="M599.17,234.6a10.78,10.78,0,0,1-4.71-.94,7.09,7.09,0,0,1-3-2.55,6.89,6.89,0,0,1,0-7.28,6.68,6.68,0,0,1,3.25-2.47,15.88,15.88,0,0,1,5.8-.89h6.24v4h-5.5a5.12,5.12,0,0,0-3.29.78,2.51,2.51,0,0,0-.9,2,2.46,2.46,0,0,0,1,2.07,4.6,4.6,0,0,0,2.81.76,5.86,5.86,0,0,0,3.06-.81,4.62,4.62,0,0,0,2-2.37l1.05,3.14a6.08,6.08,0,0,1-2.71,3.44A9.67,9.67,0,0,1,599.17,234.6Zm7.16-.35v-4.58l-.44-1v-8.2a4.39,4.39,0,0,0-1.33-3.41,5.9,5.9,0,0,0-4.08-1.22,12,12,0,0,0-3.69.59,9.68,9.68,0,0,0-3.07,1.59l-2.45-4.75a15,15,0,0,1,4.63-2.1,20.89,20.89,0,0,1,5.5-.74c3.57,0,6.35.85,8.33,2.53s3,4.32,3,7.9v13.39Z"/><path class="cls-3" d="M618.85,234.25V201.88h6.8v32.37Z"/><path class="cls-3" d="M651.13,234.25V209.47h-9.77v-5.76H668v5.76H658.2v24.78Z"/><path class="cls-3" d="M670.76,234.25V210.78h6.5v6.63l-.91-1.92a7.59,7.59,0,0,1,3.36-3.77,11.36,11.36,0,0,1,5.62-1.29v6.29c-.29,0-.55-.06-.78-.07l-.74,0a6.41,6.41,0,0,0-4.52,1.59q-1.72,1.59-1.72,4.95v11.08Z"/><path class="cls-3" d="M695.11,234.6a10.78,10.78,0,0,1-4.71-.94,7,7,0,0,1-3-2.55,6.47,6.47,0,0,1-1-3.62,6.56,6.56,0,0,1,1-3.66,6.77,6.77,0,0,1,3.25-2.47,16,16,0,0,1,5.81-.89h6.24v4h-5.5a5.17,5.17,0,0,0-3.3.78,2.54,2.54,0,0,0-.89,2,2.44,2.44,0,0,0,1,2.07,4.6,4.6,0,0,0,2.81.76,5.82,5.82,0,0,0,3.05-.81,4.63,4.63,0,0,0,2-2.37l1,3.14a6,6,0,0,1-2.7,3.44A9.69,9.69,0,0,1,695.11,234.6Zm7.15-.35v-4.58l-.43-1v-8.2a4.43,4.43,0,0,0-1.33-3.41,5.9,5.9,0,0,0-4.08-1.22,12,12,0,0,0-3.69.59,9.74,9.74,0,0,0-3.08,1.59l-2.44-4.75a14.85,14.85,0,0,1,4.63-2.1,20.82,20.82,0,0,1,5.49-.74c3.58,0,6.36.85,8.34,2.53s3,4.32,3,7.9v13.39Z"/><path class="cls-3" d="M729.05,210.43a10.78,10.78,0,0,1,5,1.12,8,8,0,0,1,3.47,3.4,12,12,0,0,1,1.27,5.87v13.43H732V221.86a6,6,0,0,0-1.24-4.18,4.51,4.51,0,0,0-3.51-1.36,6.11,6.11,0,0,0-2.9.68,4.68,4.68,0,0,0-2,2.07,7.78,7.78,0,0,0-.72,3.58v11.6h-6.81V210.78h6.5v6.5l-1.22-2a8.71,8.71,0,0,1,3.62-3.62A11.1,11.1,0,0,1,729.05,210.43Z"/><path class="cls-3" d="M752.83,234.6a23,23,0,0,1-5.79-.72,14.33,14.33,0,0,1-4.38-1.81l2.27-4.88a15.26,15.26,0,0,0,3.82,1.63,15.66,15.66,0,0,0,4.34.63,7.06,7.06,0,0,0,3.33-.56,1.74,1.74,0,0,0,1-1.57,1.35,1.35,0,0,0-.77-1.25,7,7,0,0,0-2-.63c-.84-.14-1.76-.29-2.77-.44s-2-.34-3-.58A10.13,10.13,0,0,1,746,223.3a5.72,5.72,0,0,1-2-2,7,7,0,0,1,.52-7.2,8.56,8.56,0,0,1,3.74-2.69,15.68,15.68,0,0,1,5.84-1A23.67,23.67,0,0,1,759,211a13.26,13.26,0,0,1,4.14,1.52l-2.27,4.85a11.49,11.49,0,0,0-3.42-1.38,15.67,15.67,0,0,0-3.34-.37,6.77,6.77,0,0,0-3.31.61,1.8,1.8,0,0,0-1,1.57,1.41,1.41,0,0,0,.76,1.31,7.24,7.24,0,0,0,2,.7c.84.17,1.77.33,2.77.46a23.8,23.8,0,0,1,3,.59,10.84,10.84,0,0,1,2.77,1.11,5.77,5.77,0,0,1,2,2,6,6,0,0,1,.79,3.25A6.11,6.11,0,0,1,762.6,231a8.56,8.56,0,0,1-3.78,2.64A16.53,16.53,0,0,1,752.83,234.6Z"/><path class="cls-3" d="M765.3,216.54v-5.23h16.28v5.23Zm3.62,17.71v-24a8.64,8.64,0,0,1,2.36-6.35,9.06,9.06,0,0,1,6.72-2.38,13.4,13.4,0,0,1,2.86.31,6.56,6.56,0,0,1,2.33,1l-1.79,4.93a4.6,4.6,0,0,0-1.26-.61,4.84,4.84,0,0,0-1.49-.22,3,3,0,0,0-2.29.85,3.58,3.58,0,0,0-.81,2.55v2.18l.18,2.93v18.84Z"/><path class="cls-3" d="M795.84,234.6a13.7,13.7,0,0,1-6.65-1.57,11.93,11.93,0,0,1-4.58-4.3,11.56,11.56,0,0,1-1.68-6.21A11.59,11.59,0,0,1,789.19,212a15,15,0,0,1,13.28,0,11.55,11.55,0,0,1,4.58,4.26A11.94,11.94,0,0,1,802.47,233,13.76,13.76,0,0,1,795.84,234.6Zm0-5.58a5.94,5.94,0,0,0,3.06-.79A5.55,5.55,0,0,0,801,226a8.06,8.06,0,0,0,0-7,5.65,5.65,0,0,0-2.13-2.23,6.37,6.37,0,0,0-6.11,0,5.86,5.86,0,0,0-2.16,2.23,7.88,7.88,0,0,0,0,7,5.75,5.75,0,0,0,2.16,2.24A5.9,5.9,0,0,0,795.84,229Z"/><path class="cls-3" d="M813.25,234.25V210.78h6.5v6.63l-.92-1.92a7.59,7.59,0,0,1,3.36-3.77,11.4,11.4,0,0,1,5.63-1.29v6.29c-.29,0-.55-.06-.78-.07l-.75,0a6.39,6.39,0,0,0-4.51,1.59q-1.72,1.59-1.72,4.95v11.08Z"/><path class="cls-3" d="M861.94,210.43a10.56,10.56,0,0,1,4.95,1.12,8,8,0,0,1,3.4,3.4,12.19,12.19,0,0,1,1.25,5.87v13.43h-6.81V221.86a6.21,6.21,0,0,0-1.18-4.18,4.13,4.13,0,0,0-3.31-1.36,5.24,5.24,0,0,0-2.66.68,4.56,4.56,0,0,0-1.84,2,8,8,0,0,0-.65,3.44v11.78h-6.81V221.86a6.32,6.32,0,0,0-1.15-4.18,4.08,4.08,0,0,0-3.3-1.36,5.26,5.26,0,0,0-2.66.68,4.6,4.6,0,0,0-1.83,2,7.84,7.84,0,0,0-.66,3.44v11.78h-6.8V210.78h6.5v6.41l-1.22-1.87a8.37,8.37,0,0,1,3.47-3.64,10.35,10.35,0,0,1,5.12-1.25,9.85,9.85,0,0,1,5.65,1.64,7.9,7.9,0,0,1,3.21,5l-2.4-.65a9.34,9.34,0,0,1,3.77-4.36A11,11,0,0,1,861.94,210.43Z"/><path class="cls-3" d="M884.88,234.6a10.78,10.78,0,0,1-4.71-.94,7.09,7.09,0,0,1-3-2.55,6.47,6.47,0,0,1-1-3.62,6.56,6.56,0,0,1,1-3.66,6.72,6.72,0,0,1,3.25-2.47,16,16,0,0,1,5.8-.89h6.24v4h-5.49a5.17,5.17,0,0,0-3.3.78,2.5,2.5,0,0,0-.89,2,2.45,2.45,0,0,0,1,2.07,4.63,4.63,0,0,0,2.82.76,5.82,5.82,0,0,0,3-.81,4.57,4.57,0,0,0,2-2.37l1,3.14a6.06,6.06,0,0,1-2.7,3.44A9.71,9.71,0,0,1,884.88,234.6Zm7.16-.35v-4.58l-.44-1v-8.2a4.39,4.39,0,0,0-1.33-3.41,5.87,5.87,0,0,0-4.08-1.22,11.86,11.86,0,0,0-3.68.59,9.74,9.74,0,0,0-3.08,1.59L877,213.27a14.9,14.9,0,0,1,4.62-2.1,21,21,0,0,1,5.5-.74c3.58,0,6.35.85,8.33,2.53s3,4.32,3,7.9v13.39Z"/><path class="cls-3" d="M901.77,216.54v-5.23H918v5.23Zm12.39,18.06a9.21,9.21,0,0,1-6.46-2.11c-1.54-1.41-2.31-3.52-2.31-6.31V205.59h6.81V226.1a3.18,3.18,0,0,0,.78,2.29,2.87,2.87,0,0,0,2.14.8,4.41,4.41,0,0,0,2.75-.87l1.83,4.8a7.69,7.69,0,0,1-2.51,1.11A12.09,12.09,0,0,1,914.16,234.6Z"/><path class="cls-3" d="M926.94,207.51a4.29,4.29,0,0,1-3.05-1.09,3.69,3.69,0,0,1,0-5.41,4.29,4.29,0,0,1,3.05-1.09,4.52,4.52,0,0,1,3.06,1,3.37,3.37,0,0,1,1.17,2.64A3.74,3.74,0,0,1,930,206.4,4.26,4.26,0,0,1,926.94,207.51Zm-3.4,26.74V210.78h6.8v23.47Z"/><path class="cls-3" d="M947.84,234.6a13.77,13.77,0,0,1-6.66-1.57,12,12,0,0,1-4.58-4.3,11.56,11.56,0,0,1-1.68-6.21A11.59,11.59,0,0,1,941.18,212a15,15,0,0,1,13.29,0,12.15,12.15,0,0,1,4.58,16.75,11.79,11.79,0,0,1-4.58,4.3A13.76,13.76,0,0,1,947.84,234.6Zm0-5.58a5.9,5.9,0,0,0,3-.79A5.57,5.57,0,0,0,953,226a8.06,8.06,0,0,0,0-7,5.67,5.67,0,0,0-2.14-2.23,6.37,6.37,0,0,0-6.11,0,5.77,5.77,0,0,0-2.15,2.23,7.88,7.88,0,0,0,0,7,5.66,5.66,0,0,0,2.15,2.24A5.94,5.94,0,0,0,947.84,229Z"/><path class="cls-3" d="M979.51,210.43a10.85,10.85,0,0,1,5,1.12A8.07,8.07,0,0,1,988,215a12.07,12.07,0,0,1,1.26,5.87v13.43h-6.81V221.86a6,6,0,0,0-1.24-4.18,4.51,4.51,0,0,0-3.51-1.36,6.14,6.14,0,0,0-2.9.68,4.68,4.68,0,0,0-2,2.07,7.78,7.78,0,0,0-.72,3.58v11.6h-6.8V210.78h6.5v6.5l-1.23-2a8.74,8.74,0,0,1,3.63-3.62A11.06,11.06,0,0,1,979.51,210.43Z"/></g></g></svg>