<svg width="30" height="30" viewBox="0 0 30 30" fill="none" xmlns="http://www.w3.org/2000/svg">
<g clip-path="url(#clip0_94_160)">
<path d="M30 15C30 18.9782 28.4196 22.7936 25.6066 25.6066C22.7936 28.4196 18.9782 30 15 30C11.0218 30 7.20644 28.4196 4.3934 25.6066C1.58035 22.7936 0 18.9782 0 15C0 11.0218 1.58035 7.20644 4.3934 4.3934C7.20644 1.58035 11.0218 0 15 0C18.9782 0 22.7936 1.58035 25.6066 4.3934C28.4196 7.20644 30 11.0218 30 15Z" fill="#FF8080"/>
<path d="M20 14.9999C20.0002 15.6566 19.871 16.3069 19.6198 16.9137C19.3686 17.5205 19.0003 18.0719 18.536 18.5363C18.0717 19.0007 17.5204 19.3691 16.9137 19.6205C16.307 19.8719 15.6567 20.0012 15 20.0012C14.3433 20.0012 13.693 19.8719 13.0863 19.6205C12.4796 19.3691 11.9283 19.0007 11.464 18.5363C10.9997 18.0719 10.6314 17.5205 10.3802 16.9137C10.129 16.3069 9.99982 15.6566 10 14.9999C9.99982 14.3432 10.129 13.6928 10.3802 13.0861C10.6314 12.4793 10.9997 11.9279 11.464 11.4635C11.9283 10.999 12.4796 10.6306 13.0863 10.3793C13.693 10.1279 14.3433 9.99854 15 9.99854C15.6567 9.99854 16.307 10.1279 16.9137 10.3793C17.5204 10.6306 18.0717 10.999 18.536 11.4635C19.0003 11.9279 19.3686 12.4793 19.6198 13.0861C19.871 13.6928 20.0002 14.3432 20 14.9999Z" fill="#30CF00"/>
</g>
<defs>
<clipPath id="clip0_94_160">
<rect width="30" height="30" fill="white"/>
</clipPath>
</defs>
</svg>
